<mxfile host="app.diagrams.net" modified="2023-03-01T10:06:09.472Z" agent="5.0 (Windows NT 10.0; Win64; x64) AppleWebKit/537.36 (KHTML, like Gecko) Chrome/110.0.0.0 Safari/537.36" etag="-B4CrEJH6bBF5UQ7WMQH" version="20.8.23" type="github">
  <diagram id="kgpKYQtTHZ0yAKxKKP6v" name="Page-1">
    <mxGraphModel dx="573" dy="602" grid="1" gridSize="10" guides="1" tooltips="1" connect="1" arrows="1" fold="1" page="1" pageScale="1" pageWidth="850" pageHeight="1100" math="0" shadow="0">
      <root>
        <mxCell id="0" />
        <mxCell id="1" parent="0" />
        <mxCell id="nlKvLJYl5tcjkjAq7JBs-9" style="edgeStyle=orthogonalEdgeStyle;curved=1;sketch=0;orthogonalLoop=1;jettySize=auto;html=1;exitX=0.5;exitY=1;exitDx=0;exitDy=0;entryX=0;entryY=0.5;entryDx=0;entryDy=0;" edge="1" parent="1" source="nlKvLJYl5tcjkjAq7JBs-1" target="nlKvLJYl5tcjkjAq7JBs-7">
          <mxGeometry relative="1" as="geometry" />
        </mxCell>
        <mxCell id="nlKvLJYl5tcjkjAq7JBs-1" value="System running." style="ellipse;whiteSpace=wrap;html=1;shadow=1;" vertex="1" parent="1">
          <mxGeometry x="210" y="70" width="120" height="80" as="geometry" />
        </mxCell>
        <mxCell id="nlKvLJYl5tcjkjAq7JBs-5" value="&#xa;&lt;span style=&quot;color: rgb(0, 0, 0); font-family: Helvetica; font-size: 12px; font-style: normal; font-variant-ligatures: normal; font-variant-caps: normal; font-weight: 400; letter-spacing: normal; orphans: 2; text-align: center; text-indent: 0px; text-transform: none; widows: 2; word-spacing: 0px; -webkit-text-stroke-width: 0px; background-color: rgb(251, 251, 251); text-decoration-thickness: initial; text-decoration-style: initial; text-decoration-color: initial; float: none; display: inline !important;&quot;&gt;Waiting KL15 event&lt;/span&gt;&#xa;&#xa;" style="endArrow=classic;html=1;sketch=0;exitX=1;exitY=0.5;exitDx=0;exitDy=0;entryX=1;entryY=0;entryDx=0;entryDy=0;spacing=0;textOpacity=80;curved=1;" edge="1" parent="1" source="nlKvLJYl5tcjkjAq7JBs-1" target="nlKvLJYl5tcjkjAq7JBs-1">
          <mxGeometry x="-0.3967" y="-10" width="50" height="50" relative="1" as="geometry">
            <mxPoint x="340" y="90" as="sourcePoint" />
            <mxPoint x="300" y="70" as="targetPoint" />
            <Array as="points">
              <mxPoint x="410" y="120" />
              <mxPoint x="440" y="70" />
              <mxPoint x="400" y="70" />
            </Array>
            <mxPoint x="-9" y="5" as="offset" />
          </mxGeometry>
        </mxCell>
        <mxCell id="nlKvLJYl5tcjkjAq7JBs-7" value="System shut down" style="ellipse;whiteSpace=wrap;html=1;shadow=1;sketch=0;" vertex="1" parent="1">
          <mxGeometry x="340" y="200" width="120" height="80" as="geometry" />
        </mxCell>
      </root>
    </mxGraphModel>
  </diagram>
</mxfile>
